<svg fill="none" height="812" viewBox="0 0 375 812" width="375" xmlns="http://www.w3.org/2000/svg">
    <g clip-path="url(#clip0_1_110)">
        <rect fill="url(#paint0_linear_1_110)" height="812" width="375" />
        <g filter="url(#filter0_f_1_110)">
            <circle cx="13" cy="43" fill="#0E8AE4" fill-opacity="0.22" r="290" />
        </g>
        <circle cx="338.5" cy="262.5" r="84.5882" stroke="white" stroke-opacity="0.65" />
        <circle cx="338.5" cy="262.5" r="192.882" stroke="white" stroke-opacity="0.65" />
        <circle cx="338.5" cy="262.5" r="293.441" stroke="white" stroke-opacity="0.65" />
        <circle cx="338.5" cy="262.5" r="394" stroke="white" stroke-opacity="0.65" />
        <path
            d="M1.84404 232.613C45.0084 232.613 80 197.444 80 154.06C80 110.677 45.0084 75.5074 1.84404 75.5074C-41.3203 75.5074 -76.312 110.677 -76.312 154.06C-76.312 197.444 -41.3203 232.613 1.84404 232.613Z"
            fill="#FA9E42" />
        <g filter="url(#filter1_f_1_110)">
            <path
                d="M-3.80351 142.889C22.1718 129.092 36.7003 105.617 28.6468 90.4541C20.5934 75.2916 -6.99236 74.1844 -32.9676 87.981C-58.9429 101.778 -73.4714 125.254 -65.4179 140.416C-57.3645 155.578 -29.7788 156.686 -3.80351 142.889Z"
                fill="#F8E36F" />
        </g>
        <path
            d="M463.401 632H166.465C137.66 631.978 109.98 620.807 89.2195 600.827C68.4593 580.846 56.2285 553.605 55.0876 524.805C53.9467 496.005 63.9842 467.88 83.0987 446.318C102.213 424.756 128.923 411.428 157.636 409.125C161.73 380.195 174.787 353.277 194.968 332.159C215.149 311.04 241.439 296.784 270.14 291.396C298.841 286.008 328.508 289.759 354.967 302.121C381.426 314.484 403.346 334.835 417.643 360.313C443.865 351.23 472.197 350.169 499.024 357.265C525.852 364.36 549.959 379.291 568.27 400.152C586.582 421.013 598.268 446.86 601.839 474.394C605.409 501.929 600.702 529.903 588.317 554.75C581.049 577.198 566.861 596.765 547.789 610.644C528.716 624.522 505.74 631.999 482.158 632H463.401Z"
            fill="url(#paint1_linear_1_110)" />
    </g>
    <defs>
        <filter color-interpolation-filters="sRGB" filterUnits="userSpaceOnUse" height="1358" id="filter0_f_1_110" width="1358"
            x="-666" y="-636">
            <feFlood flood-opacity="0" result="BackgroundImageFix" />
            <feBlend in="SourceGraphic" in2="BackgroundImageFix" mode="normal" result="shape" />
            <feGaussianBlur result="effect1_foregroundBlur_1_110" stdDeviation="194.5" />
        </filter>
        <filter color-interpolation-filters="sRGB" filterUnits="userSpaceOnUse" height="114.237" id="filter1_f_1_110" width="138.508"
            x="-87.6397" y="58.3164">
            <feFlood flood-opacity="0" result="BackgroundImageFix" />
            <feBlend in="SourceGraphic" in2="BackgroundImageFix" mode="normal" result="shape" />
            <feGaussianBlur result="effect1_foregroundBlur_1_110" stdDeviation="10" />
        </filter>
        <linearGradient gradientUnits="userSpaceOnUse" id="paint0_linear_1_110" x1="-182" x2="375" y1="-940.5"
            y2="858">
            <stop stop-color="#86B9FD" />
            <stop offset="1" stop-color="#D6E2F9" />
        </linearGradient>
        <linearGradient gradientUnits="userSpaceOnUse" id="paint1_linear_1_110" x1="329" x2="488.374" y1="289"
            y2="674.097">
            <stop stop-color="#DCEAFD" />
            <stop offset="1" stop-color="#DAE7FC" />
        </linearGradient>
        <clipPath id="clip0_1_110">
            <rect fill="white" height="812" width="375" />
        </clipPath>
    </defs>
</svg>
