<svg fill="none" height="812" viewBox="0 0 375 812" width="375" xmlns="http://www.w3.org/2000/svg">
    <g clip-path="url(#clip0_1_125)">
        <rect fill="url(#paint0_linear_1_125)" height="812" width="375" />
        <path
            d="M245.808 586H-233.192C-279.658 585.965 -324.31 567.955 -357.799 535.741C-391.288 503.527 -411.018 459.607 -412.859 413.175C-414.699 366.743 -398.507 321.399 -367.673 286.635C-336.839 251.872 -293.752 230.384 -247.434 226.671C-240.829 180.028 -219.767 136.63 -187.212 102.582C-154.657 68.5344 -112.247 45.5502 -65.9489 36.8632C-19.6505 28.1763 28.2063 34.2238 70.8885 54.1549C113.571 74.0861 148.931 106.898 171.993 147.974C214.293 133.331 259.996 131.62 303.272 143.059C346.549 154.499 385.437 178.571 414.976 212.204C444.516 245.838 463.367 287.508 469.127 331.901C474.887 376.293 467.293 421.395 447.314 461.453C435.59 497.645 412.703 529.193 381.936 551.568C351.17 573.944 314.107 585.998 276.064 586H245.808Z"
            fill="url(#paint1_linear_1_125)" />
        <g filter="url(#filter0_f_1_125)">
            <path
                d="M423.793 703.215C581.375 703.215 709.121 574.821 709.121 416.438C709.121 258.056 581.375 129.661 423.793 129.661C266.21 129.661 138.464 258.056 138.464 416.438C138.464 574.821 266.21 703.215 423.793 703.215Z"
                fill="#FA9E42" />
            <g filter="url(#filter1_f_1_125)">
                <path
                    d="M403.175 375.656C498.004 325.288 551.044 239.583 521.643 184.228C492.242 128.874 391.533 124.831 296.704 175.199C201.874 225.567 148.834 311.272 178.236 366.627C207.637 421.981 308.345 426.024 403.175 375.656Z"
                    fill="#F8E36F" />
            </g>
        </g>
    </g>
    <defs>
        <filter color-interpolation-filters="sRGB" filterUnits="userSpaceOnUse" height="589.554" id="filter0_f_1_125" width="586.657"
            x="130.464" y="121.661">
            <feFlood flood-opacity="0" result="BackgroundImageFix" />
            <feBlend in="SourceGraphic" in2="BackgroundImageFix" mode="normal" result="shape" />
            <feGaussianBlur result="effect1_foregroundBlur_1_125" stdDeviation="4" />
        </filter>
        <filter color-interpolation-filters="sRGB" filterUnits="userSpaceOnUse" height="311.022" id="filter1_f_1_125" width="399.63"
            x="150.124" y="119.916">
            <feFlood flood-opacity="0" result="BackgroundImageFix" />
            <feBlend in="SourceGraphic" in2="BackgroundImageFix" mode="normal" result="shape" />
            <feGaussianBlur result="effect1_foregroundBlur_1_125" stdDeviation="10" />
        </filter>
        <linearGradient gradientUnits="userSpaceOnUse" id="paint0_linear_1_125" x1="-182" x2="375" y1="-940.5"
            y2="858">
            <stop stop-color="#C9D5E5" />
            <stop offset="1" stop-color="#F8F9FB" />
        </linearGradient>
        <linearGradient gradientUnits="userSpaceOnUse" id="paint1_linear_1_125" x1="29" x2="285.849" y1="33"
            y2="653.971">
            <stop stop-color="white" stop-opacity="0.604" />
            <stop offset="1" stop-color="white" stop-opacity="0.2" />
        </linearGradient>
        <clipPath id="clip0_1_125">
            <rect fill="white" height="812" width="375" />
        </clipPath>
    </defs>
</svg>
